<?xml version="1.0" encoding="UTF-8"?>
<svg version="1.1" xmlns="http://www.w3.org/2000/svg" width="64" height="64">
<path d="M0 0 C8.34743828 4.83630413 13.39262975 11.38175952 16.4375 20.5 C18.71187912 29.39340553 17.32134056 38.44218184 12.80859375 46.35546875 C8.33140497 53.35825121 2.51758486 58.41898127 -5.45703125 61.1484375 C-15.64136835 62.84897616 -24.80544391 61.81588413 -33.51953125 56.25 C-40.76673759 50.69222956 -45.12654283 42.40293448 -46.5625 33.5 C-47.31686389 24.29676055 -45.25575166 15.47910102 -39.296875 8.28125 C-28.74593365 -2.55485192 -14.00910229 -6.47523997 0 0 Z " fill="#EEE3F6" transform="translate(46.5625,2.5)"/>
<path d="M0 0 C8.34743828 4.83630413 13.39262975 11.38175952 16.4375 20.5 C18.71187912 29.39340553 17.32134056 38.44218184 12.80859375 46.35546875 C8.33140497 53.35825121 2.51758486 58.41898127 -5.45703125 61.1484375 C-15.64136835 62.84897616 -24.80544391 61.81588413 -33.51953125 56.25 C-40.76673759 50.69222956 -45.12654283 42.40293448 -46.5625 33.5 C-47.31686389 24.29676055 -45.25575166 15.47910102 -39.296875 8.28125 C-28.74593365 -2.55485192 -14.00910229 -6.47523997 0 0 Z M-38.0546875 11.34375 C-43.22574208 18.73862598 -44.69830535 25.50533941 -43.5625 34.5 C-41.91957027 41.24743331 -39.48399771 46.57850229 -34.5625 51.5 C-34.2325 51.5 -33.9025 51.5 -33.5625 51.5 C-33.48 50.283125 -33.3975 49.06625 -33.3125 47.8125 C-32.77698283 43.66040797 -31.66764477 41.43729911 -28.5625 38.5 C-21.80447355 34.44715153 -15.23308292 34.75265199 -7.5625 35.5 C-3.58460329 36.64408534 -0.71517409 38.45887501 2.375 41.25 C3.96491806 44.6168853 4.12884017 47.79608204 4.4375 51.5 C10.42312767 46.17944207 13.79594984 39.8922697 14.74609375 31.90625 C15.15655797 22.65214758 12.7024966 15.27273429 6.46875 8.296875 C0.0519193 2.4230069 -5.72435648 -0.07217139 -14.375 0 C-15.17526611 0.00644531 -15.97553223 0.01289062 -16.80004883 0.01953125 C-26.34264887 0.31521471 -32.10912266 3.93253429 -38.0546875 11.34375 Z " fill="#CDB3EC" transform="translate(46.5625,2.5)"/>
<path d="M0 0 C8.34743828 4.83630413 13.39262975 11.38175952 16.4375 20.5 C18.71187912 29.39340553 17.32134056 38.44218184 12.80859375 46.35546875 C8.33140497 53.35825121 2.51758486 58.41898127 -5.45703125 61.1484375 C-15.64136835 62.84897616 -24.80544391 61.81588413 -33.51953125 56.25 C-40.76673759 50.69222956 -45.12654283 42.40293448 -46.5625 33.5 C-47.31686389 24.29676055 -45.25575166 15.47910102 -39.296875 8.28125 C-28.74593365 -2.55485192 -14.00910229 -6.47523997 0 0 Z M-38.0546875 11.34375 C-43.22574208 18.73862598 -44.69830535 25.50533941 -43.5625 34.5 C-41.91957027 41.24743331 -39.48399771 46.57850229 -34.5625 51.5 C-34.2325 51.5 -33.9025 51.5 -33.5625 51.5 C-33.48 50.283125 -33.3975 49.06625 -33.3125 47.8125 C-32.77698283 43.66040797 -31.66764477 41.43729911 -28.5625 38.5 C-21.80447355 34.44715153 -15.23308292 34.75265199 -7.5625 35.5 C-3.58460329 36.64408534 -0.71517409 38.45887501 2.375 41.25 C3.96491806 44.6168853 4.12884017 47.79608204 4.4375 51.5 C10.42312767 46.17944207 13.79594984 39.8922697 14.74609375 31.90625 C15.15655797 22.65214758 12.7024966 15.27273429 6.46875 8.296875 C0.0519193 2.4230069 -5.72435648 -0.07217139 -14.375 0 C-15.17526611 0.00644531 -15.97553223 0.01289062 -16.80004883 0.01953125 C-26.34264887 0.31521471 -32.10912266 3.93253429 -38.0546875 11.34375 Z M-29.5625 41.125 C-31.75465158 44.8242558 -32.47619842 47.12667218 -32.25390625 51.37890625 C-31.12918175 54.82933225 -28.79596837 55.97548354 -25.703125 57.625 C-18.5171357 60.56233869 -11.26916955 60.43455668 -4.0625 57.625 C-1.30080929 56.44516378 0.30039961 55.63710039 2.4375 53.5 C3.13393115 50.0733122 3.13110356 46.9259812 2.4375 43.5 C-0.42722966 39.54087924 -4.82183951 36.62872869 -9.5625 35.5 C-17.37397244 34.67219464 -23.59304509 35.90172696 -29.5625 41.125 Z " fill="#8753B5" transform="translate(46.5625,2.5)"/>
<path d="M0 0 C3.62535141 1.647887 6.20557709 3.41115419 8 7 C8.59750228 11.36258515 8.49344078 14.89563253 6.6875 18.9375 C4.62767733 21.45506104 2.95288171 22.84656989 -0.3046875 23.37109375 C-7.30647292 23.55199094 -7.30647292 23.55199094 -11.0625 20.5625 C-11.701875 19.716875 -12.34125 18.87125 -13 18 C-13.33 17.67 -13.66 17.34 -14 17 C-14.67623679 12.48919323 -15.21544594 7.90431886 -12.68359375 3.9375 C-8.71385867 0.24307093 -5.48363527 -0.91393921 0 0 Z " fill="#CDB4EC" transform="translate(35,11)"/>
<path d="M0 0 C3.62535141 1.647887 6.20557709 3.41115419 8 7 C8.59750228 11.36258515 8.49344078 14.89563253 6.6875 18.9375 C4.62767733 21.45506104 2.95288171 22.84656989 -0.3046875 23.37109375 C-7.30647292 23.55199094 -7.30647292 23.55199094 -11.0625 20.5625 C-11.701875 19.716875 -12.34125 18.87125 -13 18 C-13.33 17.67 -13.66 17.34 -14 17 C-14.67623679 12.48919323 -15.21544594 7.90431886 -12.68359375 3.9375 C-8.71385867 0.24307093 -5.48363527 -0.91393921 0 0 Z M-9.9375 3.9375 C-12.7147239 8.06125671 -12.90895813 11.16678994 -12 16 C-10.78475509 19.2071208 -10.78475509 19.2071208 -8 21 C-4.84616468 21.71196655 -2.15790307 21.6799044 1 21 C4.25 19.25 4.25 19.25 6 16 C6.62337099 12.87201344 6.6483903 10.12512441 6 7 C4.12379387 4.49839182 2.76108697 3.38054348 0 2 C-4.2535161 1.51846988 -6.3220363 1.55283245 -9.9375 3.9375 Z " fill="#8E5EBB" transform="translate(35,11)"/>
<path d="M0 0 C4.10820614 1.90323674 7.33641969 4.17283937 9.38671875 8.2734375 C9.91516561 12.33587276 10.16811136 16.24007272 9.38671875 20.2734375 C7.60546875 22.140625 7.60546875 22.140625 5.38671875 23.2734375 C4.06671875 23.2734375 2.74671875 23.2734375 1.38671875 23.2734375 C1.38671875 22.6134375 1.38671875 21.9534375 1.38671875 21.2734375 C2.21171875 20.9434375 3.03671875 20.6134375 3.88671875 20.2734375 C6.5613766 18.55184732 6.5613766 18.55184732 6.9296875 16.03125 C7.12282563 12.51300398 7.27480665 9.54969627 5.20703125 6.578125 C0.14776932 2.20042167 -4.75697606 0.84976936 -11.26953125 1.0234375 C-16.33573861 1.56383295 -20.20712851 3.04756076 -24.05078125 6.3984375 C-26.16380778 10.28640631 -26.42281073 13.90213909 -26.61328125 18.2734375 C-26.94328125 18.2734375 -27.27328125 18.2734375 -27.61328125 18.2734375 C-29.2990871 9.82771711 -29.2990871 9.82771711 -27.77734375 6.37890625 C-21.07572382 -2.05147551 -9.80450483 -2.72591614 0 0 Z " fill="#9263BF" transform="translate(41.61328125,37.7265625)"/>
<path d="M0 0 C7.12932373 -0.47179348 13.09325377 -0.42635871 19 4 C19.99 5.485 19.99 5.485 21 7 C17.38193547 7 16.79438432 6.13688213 14 4 C9.53205374 1.70219907 4.931996 1.40831339 0 1 C0 0.67 0 0.34 0 0 Z " fill="#8755B7" transform="translate(28,37)"/>
<path d="M0 0 C0.66 0 1.32 0 2 0 C3.32 2.97 4.64 5.94 6 9 C4.68 9 3.36 9 2 9 C0.14223235 5.86501708 -0.20140476 3.62528568 0 0 Z " fill="#8C58B9" transform="translate(3,41)"/>
</svg>
